<svg xmlns="http://www.w3.org/2000/svg"  viewBox="0 0 100 100" width="32px" height="32px"><g id="Слой_2"><path d="M81,35.278V31c0-0.412-0.032-0.824-0.095-1.23C79.681,15.299,66.598,4,51,4 C35.396,4,22.312,15.302,21.094,29.779C21.032,30.182,21,30.592,21,31v4.278c-4.156,2.048-7,6.335-7,11.222v12 c0,4.887,2.844,7.174,7,9.222v5.532c0,5.027,2.497,9.693,6.68,12.481l2.883,1.922l1.787,1.192l1.213,0.808l5.672,3.781 C42.73,95.768,46.798,97,51,97c4.202,0,8.27-1.232,11.766-3.562l5.672-3.781l1.212-0.808l1.788-1.192l2.882-1.922 C78.503,82.946,81,78.28,81,73.254v-3.532c4.156-2.048,7-6.335,7-11.222v-12C88,41.613,85.156,37.326,81,35.278z" opacity=".35"/><path fill="#f2f2f2" d="M79,33.278V29c0-0.412-0.032-0.824-0.095-1.23C77.681,13.299,64.598,2,49,2 C33.396,2,20.312,13.302,19.094,27.779C19.032,28.182,19,28.592,19,29v4.278c-4.156,2.048-7,6.335-7,11.222v12 c0,4.887,2.844,9.174,7,11.222v3.532c0,5.027,2.497,9.693,6.68,12.481l2.883,1.922l1.787,1.192l1.213,0.808l5.672,3.781 C40.73,93.768,44.798,95,49,95c4.202,0,8.27-1.232,11.766-3.562l5.672-3.781l1.212-0.808l1.788-1.192l2.882-1.922 C76.503,80.946,79,76.28,79,71.254v-3.532c4.156-2.048,7-6.335,7-11.222v-12C86,39.613,83.156,35.326,79,33.278z"/><path fill="#2b59a1" d="M71,30c0,11.046-9.85,23-22,23S27,41.046,27,30s9.85-20,22-20S71,18.954,71,30z"/><path fill="#ffc7a3" d="M33,79l8.672,5.781C43.842,86.228,46.392,87,49,87h0c2.608,0,5.158-0.772,7.328-2.219L65,79V42H33V79z"/><path fill="#2b59a1" d="M33,49v4.742c0,1.49,0.303,2.964,0.889,4.333l0.574,1.34C35.477,61.78,36,64.327,36,66.9V81l-5.883-3.922 C28.17,75.78,27,73.594,27,71.254V29h6V49z"/><path fill="#2b59a1" d="M65,49v4.742c0,1.49-0.303,2.964-0.889,4.333l-0.574,1.34C62.523,61.78,62,64.327,62,66.9V81l5.883-3.922 C69.83,75.78,71,73.594,71,71.254V29h-6V49z"/><path fill="#ef8630" d="M27,63h-2.5c-2.475,0-4.5-2.507-4.5-5.571V42.571C20,39.507,22.025,37,24.5,37H27V63z"/><path fill="#ef8630" d="M71,63h2.5c2.475,0,4.5-2.411,4.5-5.357V43.357C78,40.411,75.975,38,73.5,38H71V63z"/><path fill="#f9b84f" d="M69.233,42l-42.248,0c-3.833,2.35-3.656,10.441-1.27,12.429l0,0C28.484,56.737,31.974,58,35.577,58h9.564 c0.446-1.722,1.997-3,3.859-3s3.413,1.278,3.859,3h9.564c3.603,0,7.092-1.263,9.861-3.569l0.774-0.645 C75.499,49.988,72.832,42,69.233,42z"/><path fill="#de5147" d="M67.5,51h-37c-0.828,0-1.5-0.672-1.5-1.5l0,0c0-0.828,0.672-1.5,1.5-1.5h37c0.828,0,1.5,0.672,1.5,1.5l0,0 C69,50.328,68.328,51,67.5,51z"/><path fill="#40396e" d="M49,10c11.781,0,21.399,8.419,21.972,19H71v8.5c0,1.381,1.119,2.5,2.5,2.5h0c2.475,0,4.5,2.025,4.5,4.5v12 c0,2.475-2.025,4.5-4.5,4.5h0c-1.381,0-2.5,1.119-2.5,2.5v7.754c0,2.341-1.17,4.526-3.117,5.825L65,79l-1.787,1.192L62,81 l-5.672,3.781C54.158,86.228,51.608,87,49,87s-5.158-0.772-7.328-2.219L36,81l-1.213-0.808L33,79l-2.883-1.922 C28.17,75.78,27,73.594,27,71.254V63.5c0-1.381-1.119-2.5-2.5-2.5h0c-2.475,0-4.5-2.025-4.5-4.5v-12c0-2.475,2.025-4.5,4.5-4.5 h0c1.381,0,2.5-1.119,2.5-2.5V29h0.028C27.601,18.419,37.219,10,49,10 M49,7c-13.18,0-24.046,9.367-24.94,21.406 C24.021,28.598,24,28.797,24,29v8.016c-3.903,0.258-7,3.516-7,7.484v12c0,3.967,3.097,7.225,7,7.484v7.27 c0,3.351,1.665,6.462,4.453,8.321l2.883,1.922l1.787,1.192l1.213,0.808l5.672,3.781C42.679,89.059,45.789,90,49,90 s6.321-0.941,8.992-2.723l5.672-3.781l1.213-0.808l1.787-1.192l2.883-1.922C72.335,77.715,74,74.605,74,71.254v-7.27 c3.903-0.258,7-3.516,7-7.484v-12c0-3.967-3.097-7.225-7-7.484V29c0-0.207-0.021-0.408-0.061-0.603C73.04,16.363,62.177,7,49,7 L49,7z"/><path fill="#2785bd" d="M66.5,30c-0.641,0-1.235-0.414-1.433-1.059c-3.636-11.816-12.354-12.909-12.723-12.949 c-0.82-0.091-1.417-0.828-1.331-1.648c0.087-0.821,0.813-1.425,1.637-1.336c0.449,0.045,11.04,1.258,15.284,15.051 c0.244,0.792-0.201,1.632-0.993,1.875C66.794,29.979,66.646,30,66.5,30z"/></g></svg>